<svg xmlns="http://www.w3.org/2000/svg" width="158" height="158" viewBox="0 0 158 158">
  <g id="Group_1701" data-name="Group 1701" transform="translate(-1273 -793)">
    <g id="Group_1688" data-name="Group 1688">
      <rect id="Rectangle_1333" data-name="Rectangle 1333" width="158" height="158" rx="21" transform="translate(1273 793)" fill="#f3b352"/>
      <path id="Union_32" data-name="Union 32" d="M-5245-20750a2,2,0,0,1-2-2v-5a2,2,0,0,1,2-2h10.665l5.74-9H-5270a5,5,0,0,1-5-5v-62a5.006,5.006,0,0,1,5-5h96a5.006,5.006,0,0,1,5,5v62a5,5,0,0,1-5,5h-42.407l5.888,9H-5199a2,2,0,0,1,2,2v5a2,2,0,0,1-2,2Zm-20.648-27.391h87.3v-53.217h-87.3Z" transform="translate(6574 21667)" fill="#fff"/>
    </g>
  </g>
</svg>
