<svg xmlns="http://www.w3.org/2000/svg" width="158" height="158" viewBox="0 0 158 158">
  <g id="Group_1699" data-name="Group 1699" transform="translate(-883 -793)">
    <g id="Group_1686" data-name="Group 1686">
      <rect id="Rectangle_1331" data-name="Rectangle 1331" width="158" height="158" rx="21" transform="translate(883 793)" fill="#f3b352"/>
      <path id="Subtraction_28" data-name="Subtraction 28" d="M-5240.109-20749.4c-8.954-3.7-16.353-8.406-21.991-13.986a44.273,44.273,0,0,1-10.1-14.941,38.749,38.749,0,0,1-2.737-11.9,25.16,25.16,0,0,1,.094-4.854v-36.477l34.733-8.445,37.37,8.447,0,.08c.074,2.871.7,28.3,0,36.395-.053.607-.095,1.285-.139,2v.006c-.3,4.791-.744,12.031-5.547,19.906a46.415,46.415,0,0,1-11,12.07,87.771,87.771,0,0,1-20.686,11.693Zm-18.984-53.295a3.179,3.179,0,0,0-2.935,1.83c-.7,1.361,1.043,4.5,2.626,6.9,1.754,2.656,3.678,4.975,3.7,5l0,.006c.56.809,5.568,8.018,8.981,11.951a4.449,4.449,0,0,0,3.253,1.846,4.3,4.3,0,0,0,3.127-1.846c.012-.016.091-.121.23-.3,4.951-6.51,21.246-27.912,23.07-30a7.862,7.862,0,0,0,2.015-3.5,3.9,3.9,0,0,0-1.147-3.447,2.1,2.1,0,0,0-1.631-.713c-2.123,0-4.793,2.549-4.818,2.574l-20.821,21.443-.045-.035c-1.271-1.025-7.756-6.285-10.609-9.139A7.56,7.56,0,0,0-5259.094-20802.7Z" transform="translate(6200.692 21666.648)" fill="#fff"/>
    </g>
  </g>
</svg>
